<svg width="166" height="150" viewBox="0 0 166 150" fill="none" xmlns="http://www.w3.org/2000/svg">
<path d="M48.7296 72.2586C48.7296 73.8043 47.4751 75.0588 45.9294 75.0588C44.3838 75.0588 43.1295 73.8043 43.1295 72.2586V54.567L5.60013 54.4292V144.4H43.1215L43.1228 85.9843C43.1228 84.4443 44.3716 83.1958 45.9116 83.1958C47.4516 83.1958 48.7005 84.4443 48.7005 85.9843L48.7105 147.2C48.7105 148.746 47.456 150 45.9104 150H2.79992C1.25426 150 0 148.746 0 147.2V51.6303C0.0110791 50.0903 1.25993 48.8414 2.79992 48.8414L45.9294 48.988C47.4751 48.988 48.7296 50.2426 48.7296 51.7882V72.2586Z" fill="#333333"/>
<path d="M24.3644 130.494C26.538 130.494 28.3 128.732 28.3 126.558C28.3 124.384 26.538 122.622 24.3644 122.622C22.1908 122.622 20.4287 124.384 20.4287 126.558C20.4287 128.732 22.1908 130.494 24.3644 130.494Z" fill="#333333"/>
<path d="M85.3179 142.24C86.8636 142.24 88.1181 143.494 88.1181 145.039C88.1181 146.585 86.8636 147.84 85.3179 147.84H45.9103C44.3649 147.84 43.1104 146.585 43.1104 145.039C43.1104 143.494 44.3649 142.24 45.9103 142.24H85.3179Z" fill="#333333"/>
<path d="M99.2007 147.84C97.6553 147.84 96.4008 146.585 96.4008 145.039C96.4008 143.494 97.6553 142.239 99.2007 142.239H125.102C129.847 142.239 133.193 141.461 135.335 140.148C137.251 138.975 138.126 137.284 138.126 135.342C138.126 132.259 137.183 129.901 135.753 128.24L135.742 128.228C134.076 126.294 131.722 125.235 129.43 125.043C127.89 124.916 126.744 123.564 126.871 122.024C126.985 120.628 128.108 119.555 129.465 119.462C131.036 119.282 132.76 119.179 134.518 119.075C141.124 118.682 148.356 118.251 148.356 112.504C148.356 108.243 147.434 105.73 145.942 104.319C144.467 102.933 142.234 102.415 139.707 102.257C138.167 102.161 136.997 100.834 137.093 99.2937C137.182 97.8725 138.32 96.7658 139.706 96.6795C142.784 96.3569 146.419 95.8978 149.151 94.6894C151.311 93.734 152.898 92.2128 152.898 89.6716C152.898 86.5076 152.071 83.9875 150.694 82.2537C149.362 80.5738 147.47 79.6094 145.321 79.5244C143.781 79.4638 142.581 78.1658 142.642 76.6258C142.698 75.1932 143.825 74.0552 145.222 73.9521L145.853 73.8972C151.723 73.4394 159.888 72.8009 159.888 64.0445C159.888 56.2405 151.321 56.3489 143.968 56.4419L141.4 56.4754C135.512 56.4754 130.863 56.5383 126.219 56.5988C116.03 56.732 105.84 56.8676 95.5877 56.4644C94.0477 56.4038 92.848 55.1057 92.9086 53.5657C92.9568 52.337 93.7923 51.3257 94.91 50.9975C98.8403 49.8406 105.117 43.7442 110.181 36.3591C114.507 30.0509 117.809 22.9369 117.809 17.3512C117.809 14.8558 117.385 12.8062 116.662 11.1665C115.805 9.22555 114.511 7.83551 113.004 6.94068C111.467 6.02781 109.677 5.6001 107.873 5.6001C106.263 5.6001 104.656 5.93944 103.215 6.57559C100.851 7.61934 98.754 11.6604 96.3011 16.3914C92.587 23.5573 88.1554 32.1039 79.4472 36.9223C71.5947 41.2679 66.3161 44.5396 60.9402 47.8706C56.8185 50.4252 52.6362 53.0169 47.3095 56.0926C45.9756 56.8653 44.2653 56.4095 43.4926 55.0756C42.7196 53.7415 43.1754 52.0314 44.5096 51.2585C49.9628 48.1102 54.0162 45.5981 58.0078 43.1238C63.3706 39.8019 68.6358 36.5382 76.7568 32.0437C83.9597 28.0575 87.9727 20.3204 91.3351 13.8311C94.2816 8.14804 96.8007 3.29384 100.962 1.45703C103.115 0.506285 105.498 0 107.873 0C110.632 0 113.408 0.67994 115.849 2.12924C118.318 3.5953 120.42 5.82967 121.78 8.91302C122.809 11.2427 123.409 14.046 123.409 17.3512C123.409 24.1509 119.681 32.3863 114.798 39.5084C111.737 43.9717 108.163 48.0543 104.724 51.1139C111.889 51.2082 119.023 51.1139 126.154 51.0212C131.642 50.9493 137.133 50.8756 141.4 50.8756L143.903 50.8643C153.872 50.7388 165.488 50.5898 165.488 64.0445C165.488 73.4 160.443 76.8664 154.695 78.3237L155.069 78.7749C157.211 81.473 158.498 85.1894 158.498 89.6716C158.498 94.9638 155.494 97.9977 151.405 99.8077C150.917 100.024 150.415 100.22 149.902 100.398C152.41 102.849 153.956 106.632 153.956 112.504C153.956 121.561 147.199 123.571 139.723 124.301L139.986 124.598C142.241 127.225 143.726 130.809 143.726 135.342C143.726 139.243 142.009 142.611 138.245 144.918C135.252 146.752 130.927 147.84 125.102 147.84H99.2007Z" fill="#333333"/>
</svg>
