<?xml version="1.0" encoding="UTF-8"?>
<!DOCTYPE svg PUBLIC "-//W3C//DTD SVG 1.1//EN" "http://www.w3.org/Graphics/SVG/1.1/DTD/svg11.dtd">
<!-- Creator: CorelDRAW 2018 (64-Bit) -->
<svg xmlns="http://www.w3.org/2000/svg" xml:space="preserve" width="210mm" height="297mm" version="1.1" style="shape-rendering:geometricPrecision; text-rendering:geometricPrecision; image-rendering:optimizeQuality; fill-rule:evenodd; clip-rule:evenodd"
viewBox="0 0 21000 29700"
 xmlns:xlink="http://www.w3.org/1999/xlink">
 <defs>
  <style type="text/css">
   <![CDATA[
    .fil0 {fill:white;fill-rule:nonzero}
   ]]>
  </style>
 </defs>
 <g id="Слой_x0020_1">
  <metadata id="CorelCorpID_0Corel-Layer"/>
  <path class="fil0" d="M11969.25 15794.83c-80.72,113.45 -238.16,140 -351.66,59.2 -113.45,-80.68 -140,-238.16 -59.28,-351.61 527.6,-737.27 772.73,-1371.27 852.33,-1895 108.34,-712.7 -91.23,-1210.37 -290.84,-1475.32 -4.16,-5.53 -8.08,-11.22 -11.75,-16.95 -142.6,-192.68 -390.9,-388.26 -681.16,-534.4 -269.37,-135.63 -568.62,-224.84 -844.91,-224.68 -487.24,0.29 -865.98,123.72 -1156.29,307.91 -372.71,236.43 -602.67,575.34 -729.44,881.15 -319.9,771.78 5.32,1450.34 277.45,2018.22 61.8,128.95 121.24,252.96 167.58,362.04 192.81,453.77 321.19,774.13 449.56,1094.53l134.27 334.79 1592.65 0c217.14,0 460.78,40.89 645.26,184.03 159.42,123.67 265.53,307.99 265.53,579.25 0,322.59 -127.38,498.95 -313.14,598.51 -159.09,85.25 -333.02,91.77 -497.3,91.77l-1416.13 0c-75.61,0 -150.14,18.76 -195.61,67.2 -38.96,41.47 -64.48,113.16 -64.48,226.32 0,117.16 21.56,176.86 53.76,202.25 35.2,27.83 101.74,35.54 172.85,35.54l2007.01 2.39c139.63,0 252.84,113.24 252.84,252.83 0,139.67 -113.21,252.92 -252.84,252.92l-2007.01 -2.39c-166.79,0 -339.98,-31.66 -485.01,-146.19 -148.08,-116.87 -247.35,-302.59 -247.35,-597.35 0,-255.59 80.26,-441.6 202.79,-572.08 153.81,-163.83 363.48,-227.19 563.05,-227.19l1416.13 0c102.4,0 207.32,-2.15 260.25,-30.55 26.38,-14.1 44.44,-56.48 44.44,-153.98 0,-92.59 -27.17,-148.53 -67.94,-180.19 -77.54,-60.15 -210.82,-77.3 -337.1,-77.3l-1761.84 0 0 -1.19c-99.31,0 -193.38,-59.25 -233.13,-156.91 -102.6,-251.22 -151.42,-373.04 -200.18,-494.82 -126.44,-315.58 -252.92,-631.2 -445.53,-1084.64 -49.47,-116.38 -102.56,-227.11 -157.68,-342.25 -316.73,-660.76 -695.1,-1450.38 -289.36,-2429.19 159.79,-385.46 450.96,-813.58 925.01,-1114.24 362.99,-230.24 831.35,-384.59 1426.93,-384.96 360.35,-0.25 738.75,110.16 1072.06,277.98 358.95,180.73 673,432.66 861.19,687.97l7.63 9.65c259.43,344.39 520.88,977.82 387.64,1854.59 -90.16,592.94 -361.46,1302.06 -941.25,2112.34zm-2649.59 -2643.85c5.15,69.54 -46.99,130.14 -116.54,135.34 -69.59,5.15 -130.19,-47 -135.34,-116.59 -14.8,-190.33 -3.47,-383.14 43.78,-557.94 43.82,-161.97 118.31,-308.77 231.02,-425.32 117.37,-121.41 267.51,-211.15 439.34,-266.64 168.82,-54.54 358.49,-75.98 558.07,-61.8 69.54,4.91 121.94,65.26 117.03,134.81 -4.9,69.54 -65.26,121.98 -134.8,117.08 -168,-11.96 -325.39,5.4 -463.25,49.92 -132.37,42.75 -246.77,110.57 -334.63,201.47 -81.04,83.85 -135.63,193.1 -168.81,315.66 -39.41,145.81 -48.61,309.93 -35.87,474.01z"/>
 </g>
</svg>
