<svg id="Слой_1" data-name="Слой 1" xmlns="http://www.w3.org/2000/svg" viewBox="0 0 179.35 179.35"><defs><style>.cls-1{fill:#fd0;}.cls-2{fill:none;stroke-width:8px;}.cls-2,.cls-3{stroke:#1d1d1b;stroke-miterlimit:10;}.cls-3{fill:#010101;stroke-width:3px;}</style></defs><circle class="cls-1" cx="89.68" cy="89.68" r="89.68"/><path class="cls-2" d="M128.28,134.08a4.59,4.59,0,0,1,3.67-4.51,19.11,19.11,0,0,0,15.33-18.83V64.26A19.43,19.43,0,0,0,127.9,44.83H51.45A19.43,19.43,0,0,0,32,64.24v46.27a19.43,19.43,0,0,0,19.43,19.43h53.91A7.66,7.66,0,0,1,111.5,133l11.3,15.18a3,3,0,0,0,5.48-1.81Z"/><path class="cls-3" d="M89.65,97.92A10.6,10.6,0,1,1,100.43,87.5h0A10.64,10.64,0,0,1,89.65,97.92Zm0-4.13a6.39,6.39,0,1,0-6.59-6.47,6.51,6.51,0,0,0,6.59,6.47h0Z"/><path class="cls-3" d="M68.37,87.43A10.58,10.58,0,1,1,57.92,76.72h.13A10.33,10.33,0,0,1,68.38,87.05C68.38,87.18,68.37,87.3,68.37,87.43ZM57.85,93.79a6.3,6.3,0,0,0,6.39-6.23v-.27a6.46,6.46,0,1,0-6.42,6.5Z"/><path class="cls-3" d="M132.15,87.33A10.59,10.59,0,1,1,121.4,76.72a10.4,10.4,0,0,1,10.75,10Zm-4.11.09a6.56,6.56,0,0,0-6.4-6.6,6.48,6.48,0,0,0-6.53,6.43h0a6.33,6.33,0,0,0,6.13,6.53h.23A6.45,6.45,0,0,0,128,87.42h0Z"/></svg>