<?xml version="1.0" encoding="UTF-8"?>
<svg xmlns="http://www.w3.org/2000/svg" viewBox="0 0 64 64" width="512" height="512"><g id="Outline"><path d="M48,22.5V25a1,1,0,0,0,1,1v3.143a1,1,0,0,0,.725.961l3,.857a.989.989,0,0,0,.55,0l3-.857A1,1,0,0,0,57,29.141V26a1,1,0,0,0,1-1V22.5a4.3,4.3,0,0,1,1.285-3.065A8.916,8.916,0,0,0,62,13a9,9,0,1,0-15.383,6.335A4.514,4.514,0,0,1,48,22.5Zm7,5.884-2,.572-2-.572V26h4ZM46.088,11.869a7.055,7.055,0,0,1,6.061-5.821A7,7,0,0,1,57.889,18,6.309,6.309,0,0,0,56,22.5V24H54v-8.14A4,4,0,0,0,57,12H55a2,2,0,0,1-4,0H49a4,4,0,0,0,3,3.858V24H50V22.5a6.5,6.5,0,0,0-1.965-4.579A6.973,6.973,0,0,1,46.088,11.869Z"/><path d="M44,33h8v4.069L36.12,38.2a4.25,4.25,0,0,0-8.345.6L12,39.926V36h8V34H2v2h8v5a1,1,0,0,0,1,1l.071,0,16.947-1.211a4.2,4.2,0,0,0,.253.528L16.586,53H16a4,4,0,0,0-4,4v2a1,1,0,0,0,1,1H51a1,1,0,0,0,1-1V57a4,4,0,0,0-4-4h-.586L35.729,41.315a4.2,4.2,0,0,0,.434-1.11L53.071,39A1,1,0,0,0,54,38V33h8V31H44ZM32,37a2.273,2.273,0,1,1-2.272,2.272A2.275,2.275,0,0,1,32,37ZM50,57v1H14V57a2,2,0,0,1,2-2H48A2,2,0,0,1,50,57ZM19.414,53,29.605,42.809a4.26,4.26,0,0,0,4.79,0L44.586,53Z"/><path d="M14.275,33.1A1,1,0,0,0,15,32.143V29a1,1,0,0,0,1-1V25.5a4.3,4.3,0,0,1,1.286-3.066A8.919,8.919,0,0,0,20,16,9,9,0,1,0,4.617,22.335,4.514,4.514,0,0,1,6,25.5V28a1,1,0,0,0,1,1v3.143a1,1,0,0,0,.726.962l3,.856a.986.986,0,0,0,.549,0Zm-8.24-12.18a6.97,6.97,0,0,1-1.946-6.053,7.054,7.054,0,0,1,6.06-5.822A7,7,0,0,1,15.89,21,6.312,6.312,0,0,0,14,25.5V27H12V19.858a4,4,0,1,0-2,0V27H8V25.5A6.5,6.5,0,0,0,6.035,20.925ZM11,18a2,2,0,1,1,2-2A2,2,0,0,1,11,18ZM9,31.389V29h4v2.389l-2,.571Z"/></g></svg>
